<svg id="visual" viewBox="0 0 900 450" width="900" height="450" xmlns="http://www.w3.org/2000/svg" xmlns:xlink="http://www.w3.org/1999/xlink" version="1.1"><rect x="0" y="0" width="900" height="450" fill="#510513"></rect><defs><linearGradient id="grad1_0" x1="50%" y1="100%" x2="100%" y2="0%"><stop offset="10%" stop-color="#7d0814" stop-opacity="1"></stop><stop offset="90%" stop-color="#7d0814" stop-opacity="1"></stop></linearGradient></defs><defs><linearGradient id="grad1_1" x1="50%" y1="100%" x2="100%" y2="0%"><stop offset="10%" stop-color="#7d0814" stop-opacity="1"></stop><stop offset="90%" stop-color="#510513" stop-opacity="1"></stop></linearGradient></defs><defs><linearGradient id="grad2_0" x1="0%" y1="100%" x2="50%" y2="0%"><stop offset="10%" stop-color="#7d0814" stop-opacity="1"></stop><stop offset="90%" stop-color="#7d0814" stop-opacity="1"></stop></linearGradient></defs><defs><linearGradient id="grad2_1" x1="0%" y1="100%" x2="50%" y2="0%"><stop offset="10%" stop-color="#510513" stop-opacity="1"></stop><stop offset="90%" stop-color="#7d0814" stop-opacity="1"></stop></linearGradient></defs><g transform="translate(900, 450)"><path d="M-337.5 0C-327 -43 -316.5 -86 -298.4 -123.6C-280.3 -161.2 -254.5 -193.3 -226.3 -226.3C-198 -259.3 -167.3 -293.1 -129.2 -311.8C-91 -330.5 -45.5 -334 0 -337.5L0 0Z" fill="#670515"></path><path d="M-168.7 0C-163.5 -21.5 -158.3 -43 -149.2 -61.8C-140.1 -80.6 -127.3 -96.6 -113.1 -113.1C-99 -129.6 -83.6 -146.6 -64.6 -155.9C-45.5 -165.2 -22.8 -167 0 -168.7L0 0Z" fill="#7d0814"></path></g><g transform="translate(0, 0)"><path d="M337.5 0C325.9 45.4 314.4 90.8 287.3 119C260.3 147.2 217.8 158.2 192.3 192.3C166.9 226.5 158.4 283.8 129.2 311.8C99.9 339.9 50 338.7 0 337.5L0 0Z" fill="#670515"></path><path d="M168.8 0C163 22.7 157.2 45.4 143.7 59.5C130.1 73.6 108.9 79.1 96.2 96.2C83.4 113.2 79.2 141.9 64.6 155.9C50 169.9 25 169.3 0 168.8L0 0Z" fill="#7d0814"></path></g></svg>