<svg id="visual" viewBox="0 0 900 450" width="900" height="450" xmlns="http://www.w3.org/2000/svg" xmlns:xlink="http://www.w3.org/1999/xlink" version="1.1"><rect x="0" y="0" width="900" height="450" fill="#510513"></rect><defs><linearGradient id="grad1_0" x1="50%" y1="0%" x2="100%" y2="100%"><stop offset="10%" stop-color="#7d0814" stop-opacity="1"></stop><stop offset="90%" stop-color="#7d0814" stop-opacity="1"></stop></linearGradient></defs><defs><linearGradient id="grad1_1" x1="50%" y1="0%" x2="100%" y2="100%"><stop offset="10%" stop-color="#7d0814" stop-opacity="1"></stop><stop offset="90%" stop-color="#510513" stop-opacity="1"></stop></linearGradient></defs><defs><linearGradient id="grad2_0" x1="0%" y1="0%" x2="50%" y2="100%"><stop offset="10%" stop-color="#7d0814" stop-opacity="1"></stop><stop offset="90%" stop-color="#7d0814" stop-opacity="1"></stop></linearGradient></defs><defs><linearGradient id="grad2_1" x1="0%" y1="0%" x2="50%" y2="100%"><stop offset="10%" stop-color="#510513" stop-opacity="1"></stop><stop offset="90%" stop-color="#7d0814" stop-opacity="1"></stop></linearGradient></defs><g transform="translate(900, 0)"><path d="M0 337.5C-43 327 -86 316.5 -123.6 298.4C-161.2 280.3 -193.3 254.5 -226.3 226.3C-259.3 198 -293.1 167.3 -311.8 129.2C-330.5 91 -334 45.5 -337.5 0L0 0Z" fill="#670515"></path><path d="M0 168.8C-21.5 163.5 -43 158.3 -61.8 149.2C-80.6 140.1 -96.6 127.3 -113.1 113.1C-129.6 99 -146.6 83.6 -155.9 64.6C-165.2 45.5 -167 22.8 -168.7 0L0 0Z" fill="#7d0814"></path></g><g transform="translate(0, 450)"><path d="M0 -337.5C45.4 -325.9 90.8 -314.4 119 -287.3C147.2 -260.3 158.2 -217.8 192.3 -192.3C226.5 -166.9 283.8 -158.4 311.8 -129.2C339.9 -99.9 338.7 -50 337.5 0L0 0Z" fill="#670515"></path><path d="M0 -168.7C22.7 -163 45.4 -157.2 59.5 -143.7C73.6 -130.1 79.1 -108.9 96.2 -96.2C113.2 -83.4 141.9 -79.2 155.9 -64.6C169.9 -50 169.3 -25 168.8 0L0 0Z" fill="#7d0814"></path></g></svg>