<svg id="visual" viewBox="0 0 960 540" width="960" height="540" xmlns="http://www.w3.org/2000/svg" xmlns:xlink="http://www.w3.org/1999/xlink" version="1.1"><rect x="0" y="0" width="960" height="540" fill="#7C0F1F"></rect><defs><linearGradient id="grad1_0" x1="43.8%" y1="0%" x2="100%" y2="100%"><stop offset="14.444444444444446%" stop-color="#7c0f1f" stop-opacity="1"></stop><stop offset="85.55555555555554%" stop-color="#7c0f1f" stop-opacity="1"></stop></linearGradient></defs><defs><linearGradient id="grad2_0" x1="0%" y1="0%" x2="56.3%" y2="100%"><stop offset="14.444444444444446%" stop-color="#7c0f1f" stop-opacity="1"></stop><stop offset="85.55555555555554%" stop-color="#7c0f1f" stop-opacity="1"></stop></linearGradient></defs><g transform="translate(960, 0)"><path d="M0 405C-54.4 401.6 -108.9 398.2 -155 374.2C-201.1 350.1 -238.9 305.4 -260.9 260.9C-282.9 216.4 -289.1 172 -310.4 128.6C-331.8 85.1 -368.4 42.6 -405 0L0 0Z" fill="#A8141D"></path></g><g transform="translate(0, 540)"><path d="M0 -405C42.8 -376.6 85.6 -348.2 138.1 -333.5C190.7 -318.8 253 -317.8 286.4 -286.4C319.7 -255 324.1 -193.2 339.1 -140.4C354 -87.7 379.5 -43.8 405 0L0 0Z" fill="#A8141D"></path></g></svg>