<svg id="visual" viewBox="0 0 960 540" width="960" height="540" xmlns="http://www.w3.org/2000/svg" xmlns:xlink="http://www.w3.org/1999/xlink" version="1.1"><rect x="0" y="0" width="960" height="540" fill="#7C0F1F"></rect><defs><linearGradient id="grad1_0" x1="43.8%" y1="100%" x2="100%" y2="0%"><stop offset="14.444444444444446%" stop-color="#7c0f1f" stop-opacity="1"></stop><stop offset="85.55555555555554%" stop-color="#7c0f1f" stop-opacity="1"></stop></linearGradient></defs><defs><linearGradient id="grad2_0" x1="0%" y1="100%" x2="56.3%" y2="0%"><stop offset="14.444444444444446%" stop-color="#7c0f1f" stop-opacity="1"></stop><stop offset="85.55555555555554%" stop-color="#7c0f1f" stop-opacity="1"></stop></linearGradient></defs><g transform="translate(960, 540)"><path d="M-405 0C-401.6 -54.4 -398.2 -108.9 -374.2 -155C-350.1 -201.1 -305.4 -238.9 -260.9 -260.9C-216.4 -282.9 -172 -289.1 -128.6 -310.4C-85.1 -331.8 -42.6 -368.4 0 -405L0 0Z" fill="#A8141D"></path></g><g transform="translate(0, 0)"><path d="M405 0C376.6 42.8 348.2 85.6 333.5 138.1C318.8 190.7 317.8 253 286.4 286.4C255 319.7 193.2 324.1 140.4 339.1C87.7 354 43.8 379.5 0 405L0 0Z" fill="#A8141D"></path></g></svg>