<svg version="1.1" id="Layer_1" xmlns="http://www.w3.org/2000/svg" xmlns:xlink="http://www.w3.org/1999/xlink" x="0px" y="0px"
	 width="100%" viewBox="0 0 1920 1080" enable-background="new 0 0 1920 1080" xml:space="preserve">
<path fill="transparent" opacity="1.000000" stroke="none" 
	d="
M0.999998,995.000000 
	C1.000000,663.700928 1.000000,332.401825 1.000000,1.102734 
	C1.132405,1.068490 1.264809,1.004223 1.397214,1.004223 
	C641.164429,0.999994 1280.931641,1.000000 1921.000000,1.000000 
	C1921.000000,323.699341 1921.000000,646.398743 1920.639038,969.473267 
	C1919.397461,970.259460 1918.392700,970.514893 1917.654541,971.104370 
	C1894.956177,989.233154 1870.714233,1004.840149 1844.064575,1016.590332 
	C1778.023193,1045.708984 1711.986084,1049.045532 1646.069580,1016.383423 
	C1628.804810,1007.828613 1612.063232,998.207886 1594.718018,989.828857 
	C1579.961304,982.700134 1564.980591,975.807922 1549.552490,970.357788 
	C1532.939941,964.489136 1515.468750,961.817810 1497.796265,960.578308 
	C1466.432373,958.378235 1435.754517,961.476501 1407.074951,974.713013 
	C1390.385376,982.415649 1374.494995,992.070374 1358.914673,1001.907532 
	C1330.307373,1019.969604 1300.395020,1034.067871 1266.236206,1037.579712 
	C1233.375854,1040.957886 1200.782837,1039.804688 1169.678833,1028.104980 
	C1148.927490,1020.299316 1128.900146,1010.407227 1108.994141,1000.549500 
	C1066.762207,979.635681 1022.400818,973.201050 975.976868,979.490417 
	C967.327576,980.662231 958.768066,982.496704 949.439758,984.154724 
	C959.756409,958.769775 974.173096,938.028992 1000.175598,927.190125 
	C999.828796,919.528381 999.486816,911.971924 999.141724,904.348328 
	C968.096436,905.380798 937.870667,906.385986 907.244995,907.404541 
	C906.450684,885.241089 905.678711,863.698547 904.888062,841.637268 
	C880.286072,842.470337 856.087219,843.289734 831.513916,844.121765 
	C832.239990,866.219727 832.952759,887.912781 833.688660,910.309875 
	C823.861450,910.309875 814.323914,910.309875 804.685974,910.309875 
	C804.587891,909.894714 804.392639,909.420593 804.375427,908.940125 
	C804.232544,904.943726 804.093689,900.946716 804.008484,896.948730 
	C803.827148,888.428833 801.580994,886.434570 793.229004,886.639099 
	C784.789551,886.845764 776.341064,886.684631 767.525696,886.684631 
	C766.768799,865.075928 766.009033,843.384705 765.266602,822.187378 
	C752.315979,822.187378 740.266479,822.187378 727.807373,822.187378 
	C727.081604,801.488403 726.354736,780.759583 725.613159,759.609436 
	C690.387207,760.789490 655.545898,761.956665 620.434570,763.132935 
	C619.340881,731.380676 618.270935,700.318604 617.220520,669.823364 
	C604.441040,669.823364 592.238220,669.823364 579.867249,669.823364 
	C579.867249,674.362122 579.867249,677.977600 579.867249,682.262573 
	C569.937744,682.262573 560.222534,682.262573 549.849365,682.262573 
	C549.849365,678.632507 549.849365,674.908203 549.849365,671.895142 
	C537.112610,671.895142 525.029297,671.895142 512.604858,671.895142 
	C512.604858,676.475464 512.604858,680.215149 512.604858,684.515625 
	C502.520172,684.515625 492.799774,684.515625 483.084686,684.515625 
	C482.851074,680.731445 482.628235,677.121948 482.448425,674.208984 
	C469.790192,674.208984 457.681732,674.208984 445.159790,674.208984 
	C446.237366,706.346680 447.282898,737.529358 448.339722,769.047607 
	C405.036194,770.526306 362.503632,771.978638 319.574463,773.444519 
	C316.042206,747.038391 312.564941,721.043640 309.029846,694.616394 
	C311.394928,694.466370 313.343018,694.284424 315.294647,694.229980 
	C320.791626,694.076599 326.312439,694.212097 331.772949,693.695557 
	C333.221497,693.558533 334.486481,691.480774 335.835785,690.294128 
	C334.411438,689.199036 333.124756,687.759277 331.519165,687.117981 
	C330.235382,686.605225 328.563660,687.085327 327.064087,687.087463 
	C320.798798,687.096375 314.533539,687.091248 308.036377,687.091248 
	C305.543243,668.614746 303.033295,650.013733 300.501068,631.247681 
	C297.764282,631.247681 295.341980,631.247681 292.494690,631.247681 
	C291.234375,650.330566 289.988190,669.199829 288.673492,689.106201 
	C281.572632,689.106201 274.759979,688.876160 267.982391,689.262085 
	C266.207306,689.363098 263.246857,691.211304 263.076721,692.543884 
	C262.632935,696.019775 265.703308,695.991882 268.309937,695.977722 
	C274.751801,695.942810 281.193939,695.966309 288.261993,695.966309 
	C285.189819,743.151855 282.102539,790.569824 279.014893,837.993652 
	C270.101624,838.419250 261.863098,838.812622 253.569962,839.208618 
	C254.303040,861.303345 255.018784,882.875305 255.748825,904.878174 
	C243.114624,905.293213 230.827545,905.668701 218.542908,906.111938 
	C212.179428,906.341553 209.893753,908.788025 209.915100,915.071838 
	C209.933105,920.372498 209.918808,925.673279 209.918808,931.505432 
	C184.627289,932.373901 159.430603,933.239136 133.975433,934.113159 
	C134.269821,940.717773 134.696259,946.694885 134.736191,952.674622 
	C134.756561,955.725708 135.476288,957.333374 138.731079,958.349243 
	C142.803986,959.620483 146.736237,961.644897 150.395050,963.888977 
	C167.903427,974.627441 179.441086,990.475464 188.103241,1008.696716 
	C188.537979,1009.611206 188.693588,1010.658325 189.142288,1012.206665 
	C181.702530,1009.164307 174.948105,1006.385193 168.180603,1003.638184 
	C151.388107,996.822083 134.514786,990.243713 116.572517,987.003296 
	C86.772339,981.621216 57.182758,984.143616 27.697151,989.550232 
	C18.765326,991.188110 9.897267,993.173706 0.999998,995.000000 
z"/>
<path fill="#E4EBF5" opacity="1.000000" stroke="none" 
	d="
M0.999998,995.468628 
	C9.897267,993.173706 18.765326,991.188110 27.697151,989.550232 
	C57.182758,984.143616 86.772339,981.621216 116.572517,987.003296 
	C134.514786,990.243713 151.388107,996.822083 168.180603,1003.638184 
	C174.948105,1006.385193 181.702530,1009.164307 189.142288,1012.206665 
	C188.693588,1010.658325 188.537979,1009.611206 188.103241,1008.696716 
	C179.441086,990.475464 167.903427,974.627441 150.395050,963.888977 
	C146.736237,961.644897 142.803986,959.620483 138.731079,958.349243 
	C135.476288,957.333374 134.756561,955.725708 134.736191,952.674622 
	C134.696259,946.694885 134.269821,940.717773 133.975433,934.113159 
	C159.430603,933.239136 184.627289,932.373901 209.918808,931.505432 
	C209.918808,925.673279 209.933105,920.372498 209.915100,915.071838 
	C209.893753,908.788025 212.179428,906.341553 218.542908,906.111938 
	C230.827545,905.668701 243.114624,905.293213 255.748825,904.878174 
	C255.018784,882.875305 254.303040,861.303345 253.569962,839.208618 
	C261.863098,838.812622 270.101624,838.419250 279.014893,837.993652 
	C282.102539,790.569824 285.189819,743.151855 288.261993,695.966309 
	C281.193939,695.966309 274.751801,695.942810 268.309937,695.977722 
	C265.703308,695.991882 262.632935,696.019775 263.076721,692.543884 
	C263.246857,691.211304 266.207306,689.363098 267.982391,689.262085 
	C274.759979,688.876160 281.572632,689.106201 288.673492,689.106201 
	C289.988190,669.199829 291.234375,650.330566 292.494690,631.247681 
	C295.341980,631.247681 297.764282,631.247681 300.501068,631.247681 
	C303.033295,650.013733 305.543243,668.614746 308.036377,687.091248 
	C314.533539,687.091248 320.798798,687.096375 327.064087,687.087463 
	C328.563660,687.085327 330.235382,686.605225 331.519165,687.117981 
	C333.124756,687.759277 334.411438,689.199036 335.835785,690.294128 
	C334.486481,691.480774 333.221497,693.558533 331.772949,693.695557 
	C326.312439,694.212097 320.791626,694.076599 315.294647,694.229980 
	C313.343018,694.284424 311.394928,694.466370 309.029846,694.616394 
	C312.564941,721.043640 316.042206,747.038391 319.574463,773.444519 
	C362.503632,771.978638 405.036194,770.526306 448.339722,769.047607 
	C447.282898,737.529358 446.237366,706.346680 445.159790,674.208984 
	C457.681732,674.208984 469.790192,674.208984 482.448425,674.208984 
	C482.628235,677.121948 482.851074,680.731445 483.084686,684.515625 
	C492.799774,684.515625 502.520172,684.515625 512.604858,684.515625 
	C512.604858,680.215149 512.604858,676.475464 512.604858,671.895142 
	C525.029297,671.895142 537.112610,671.895142 549.849365,671.895142 
	C549.849365,674.908203 549.849365,678.632507 549.849365,682.262573 
	C560.222534,682.262573 569.937744,682.262573 579.867249,682.262573 
	C579.867249,677.977600 579.867249,674.362122 579.867249,669.823364 
	C592.238220,669.823364 604.441040,669.823364 617.220520,669.823364 
	C618.270935,700.318604 619.340881,731.380676 620.434570,763.132935 
	C655.545898,761.956665 690.387207,760.789490 725.613159,759.609436 
	C726.354736,780.759583 727.081604,801.488403 727.807373,822.187378 
	C740.266479,822.187378 752.315979,822.187378 765.266602,822.187378 
	C766.009033,843.384705 766.768799,865.075928 767.525696,886.684631 
	C776.341064,886.684631 784.789551,886.845764 793.229004,886.639099 
	C801.580994,886.434570 803.827148,888.428833 804.008484,896.948730 
	C804.093689,900.946716 804.232544,904.943726 804.375427,908.940125 
	C804.392639,909.420593 804.587891,909.894714 804.685974,910.309875 
	C814.323914,910.309875 823.861450,910.309875 833.688660,910.309875 
	C832.952759,887.912781 832.239990,866.219727 831.513916,844.121765 
	C856.087219,843.289734 880.286072,842.470337 904.888062,841.637268 
	C905.678711,863.698547 906.450684,885.241089 907.244995,907.404541 
	C937.870667,906.385986 968.096436,905.380798 999.141724,904.348328 
	C999.486816,911.971924 999.828796,919.528381 1000.175598,927.190125 
	C974.173096,938.028992 959.756409,958.769775 949.439758,984.154724 
	C958.768066,982.496704 967.327576,980.662231 975.976868,979.490417 
	C1022.400818,973.201050 1066.762207,979.635681 1108.994141,1000.549500 
	C1128.900146,1010.407227 1148.927490,1020.299316 1169.678833,1028.104980 
	C1200.782837,1039.804688 1233.375854,1040.957886 1266.236206,1037.579712 
	C1300.395020,1034.067871 1330.307373,1019.969604 1358.914673,1001.907532 
	C1374.494995,992.070374 1390.385376,982.415649 1407.074951,974.713013 
	C1435.754517,961.476501 1466.432373,958.378235 1497.796265,960.578308 
	C1515.468750,961.817810 1532.939941,964.489136 1549.552490,970.357788 
	C1564.980591,975.807922 1579.961304,982.700134 1594.718018,989.828857 
	C1612.063232,998.207886 1628.804810,1007.828613 1646.069580,1016.383423 
	C1711.986084,1049.045532 1778.023193,1045.708984 1844.064575,1016.590332 
	C1870.714233,1004.840149 1894.956177,989.233154 1917.654541,971.104370 
	C1918.392700,970.514893 1919.397461,970.259460 1920.639038,969.924194 
	C1921.000000,975.022095 1921.000000,980.044189 1920.712402,985.835999 
	C1920.283203,988.416382 1920.019775,990.226868 1920.018311,992.037659 
	C1919.992676,1021.691772 1920.000000,1051.345947 1920.000000,1081.000000 
	C1280.333374,1081.000000 640.666687,1081.000000 1.000000,1081.000000 
	C1.000000,1052.591553 1.000000,1024.264404 0.999998,995.468628 
M493.283081,767.532898 
	C524.777527,766.448242 556.271912,765.363525 588.009277,764.270447 
	C587.358093,746.371216 586.736938,729.299255 586.098633,711.755676 
	C550.168457,713.009277 514.790527,714.243652 479.020050,715.491760 
	C479.659698,733.232239 480.280457,750.449341 480.896606,767.537476 
	C485.074066,767.537476 488.702057,767.537476 493.283081,767.532898 
M632.445740,880.989563 
	C630.582764,882.639587 628.719788,884.289673 625.851257,886.830383 
	C647.841064,886.077209 668.253052,885.378052 688.665100,884.678955 
	C688.785706,884.354675 688.906311,884.030396 689.026917,883.706116 
	C678.398621,876.007080 667.770325,868.307983 657.026855,860.525452 
	C648.791016,867.384827 640.894165,873.961853 632.445740,880.989563 
M601.005371,811.528259 
	C596.048035,815.679626 591.090759,819.830994 586.133423,823.982300 
	C586.368164,824.284485 586.602905,824.586731 586.837646,824.888916 
	C607.335876,824.171143 627.834167,823.453430 649.785645,822.684814 
	C637.920105,814.108215 627.233887,806.384094 616.510254,798.632935 
	C611.257080,802.992065 606.397522,807.024475 601.005371,811.528259 
M716.768311,820.486572 
	C718.416565,820.251465 720.064819,820.016296 722.549988,819.661804 
	C711.142700,811.418579 700.544067,803.759644 689.914001,796.078064 
	C679.686462,804.628967 669.811157,812.885376 659.935852,821.141785 
	C660.071411,821.518494 660.207031,821.895264 660.342590,822.271973 
	C678.860168,821.693237 697.377808,821.114441 716.768311,820.486572 
M756.239868,877.271973 
	C747.364258,870.877625 738.488708,864.483276 729.556946,858.048523 
	C719.285034,866.630127 709.345154,874.934326 699.405273,883.238525 
	C699.615784,883.590759 699.826355,883.942932 700.036865,884.295166 
	C720.498230,883.584900 740.959595,882.874695 762.739136,882.118652 
	C759.951965,880.055359 758.375549,878.888367 756.239868,877.271973 
M595.494324,887.869995 
	C602.212402,887.869995 608.930420,887.869995 615.648499,887.869995 
	C615.760193,887.310547 615.871887,886.751099 615.983582,886.191650 
	C605.340759,878.481384 594.697998,870.771118 583.959290,862.991333 
	C573.746704,871.537903 563.809570,879.853821 554.116028,887.966003 
	C567.755859,887.966003 581.129761,887.966003 595.494324,887.869995 
M543.061462,801.771790 
	C533.336914,809.892822 523.612366,818.013916 513.887817,826.135010 
	C514.043030,826.528137 514.198242,826.921265 514.353455,827.314392 
	C534.762878,826.626953 555.172241,825.939575 575.581665,825.252197 
	C575.723389,824.866516 575.865112,824.480774 576.006836,824.095093 
	C565.222046,816.538330 554.437317,808.981628 543.061462,801.771790 
M404.571777,831.018127 
	C413.517487,830.728821 422.463196,830.439514 432.827393,830.104309 
	C420.908966,821.488403 410.311523,813.827454 399.535583,806.037476 
	C389.341187,814.550781 379.292877,822.942078 369.550842,831.077576 
	C381.062958,831.077576 392.330658,831.077576 404.571777,831.018127 
M395.741425,892.929749 
	C386.467285,886.213135 377.146881,879.558838 367.953064,872.733948 
	C365.789490,871.127930 364.317749,870.666138 362.013184,872.664124 
	C354.113647,879.513184 345.979767,886.091370 337.996796,892.845581 
	C337.028290,893.664978 336.434631,894.927429 335.135925,896.716492 
	C356.134552,896.054321 375.975830,895.432617 395.814819,894.744629 
	C396.006531,894.737976 396.167755,893.851379 395.741425,892.929749 
M886.468384,902.851135 
	C891.254944,902.599426 896.041504,902.347717 902.277710,902.019775 
	C890.470398,893.474731 880.003418,885.899597 869.248230,878.116028 
	C859.091553,886.600159 849.054749,894.984192 839.634644,902.853027 
	C854.906982,902.853027 870.193054,902.853027 886.468384,902.851135 
M489.037720,883.662537 
	C486.761444,885.661926 483.533325,887.220520 485.675049,891.578308 
	C504.529388,890.957458 523.502380,890.332764 544.105225,889.654358 
	C532.275452,881.071228 521.659180,873.368530 510.855286,865.529724 
	C503.599792,871.549194 496.592590,877.362610 489.037720,883.662537 
M417.817474,884.339294 
	C414.231262,887.330017 410.645050,890.320740 407.058838,893.311462 
	C407.245636,893.636841 407.432404,893.962280 407.619171,894.287659 
	C422.646881,893.764160 437.674591,893.240662 452.959198,892.708191 
	C452.770813,888.883423 452.824554,885.703308 452.379791,882.594604 
	C452.125061,880.814148 451.531372,878.582275 450.273254,877.537354 
	C446.217651,874.169312 441.782928,871.257690 437.340393,868.059265 
	C430.877472,873.451599 424.621490,878.671265 417.817474,884.339294 
M528.104248,843.582153 
	C531.213074,840.962585 534.321960,838.343018 538.551880,834.778809 
	C519.127441,835.454468 501.151123,836.079773 483.174866,836.705017 
	C483.082062,837.191528 482.989258,837.678040 482.896484,838.164551 
	C492.076202,844.833679 501.255920,851.502869 510.563690,858.265076 
	C516.378967,853.406311 521.976013,848.729919 528.104248,843.582153 
M383.349823,840.042480 
	C367.740417,840.611755 352.131012,841.181091 336.521606,841.750366 
	C336.479309,842.107422 336.437012,842.464539 336.394714,842.821594 
	C345.752533,849.616028 355.110352,856.410461 364.556213,863.268860 
	C373.683167,855.613281 382.531891,848.191040 392.298859,839.998596 
	C388.807526,839.998596 386.546692,839.998596 383.349823,840.042480 
M400.731476,797.631104 
	C409.293732,790.426636 417.855988,783.222168 427.270782,775.300293 
	C407.651428,775.976624 389.361328,776.607056 369.682739,777.285400 
	C379.978424,784.741699 389.099365,791.364014 398.261230,797.929199 
	C398.683533,798.231873 399.472809,798.022400 400.731476,797.631104 
M662.749756,848.246277 
	C669.733215,842.393127 676.716675,836.539978 684.799316,829.765564 
	C664.992310,830.456238 646.847717,831.088928 627.189758,831.774353 
	C637.935852,839.571838 647.377136,846.422546 656.768799,853.237244 
	C658.893494,851.471924 660.552124,850.093811 662.749756,848.246277 
M843.895325,852.627014 
	C851.297974,858.010193 858.658875,863.452759 866.148376,868.712219 
	C867.264893,869.496277 869.613831,870.199829 870.331604,869.622192 
	C878.939819,862.694580 887.347656,855.517883 896.967773,847.431274 
	C877.204834,848.090942 858.973816,848.699402 839.662964,849.343994 
	C841.529846,850.784973 842.435669,851.484192 843.895325,852.627014 
M563.452576,841.024231 
	C570.140259,845.879700 576.827942,850.735168 583.741272,855.754395 
	C592.857117,848.110840 601.796631,840.615173 611.713562,832.299927 
	C592.110413,832.972656 573.894836,833.597717 554.255859,834.271667 
	C557.896912,836.945068 560.387390,838.773621 563.452576,841.024231 
M741.862671,840.349792 
	C746.710083,836.239868 751.557495,832.129883 757.237000,827.314453 
	C737.649963,827.988281 719.372131,828.617126 699.818848,829.289795 
	C709.230957,836.146362 717.650818,842.057983 725.792603,848.330566 
	C728.675964,850.551941 730.493408,850.315491 732.930176,847.879333 
	C735.506653,845.303589 738.508667,843.153564 741.862671,840.349792 
M685.109558,785.522156 
	C686.588867,786.547974 688.068237,787.573792 689.805176,788.778259 
	C698.771423,781.250793 707.658875,773.789429 716.546326,766.328003 
	C716.348877,766.031067 716.151428,765.734131 715.953979,765.437195 
	C697.833618,766.051819 679.713257,766.666443 660.138428,767.330383 
	C669.046326,773.812012 676.783691,779.442017 685.109558,785.522156 
M630.714355,779.204712 
	C634.863464,775.727417 639.012573,772.250183 644.259277,767.853088 
	C624.684448,768.544128 606.483765,769.186768 588.283081,769.829346 
	C588.207642,770.172913 588.132141,770.516479 588.056702,770.860046 
	C597.394104,777.644165 606.731506,784.428284 616.243286,791.339050 
	C621.030823,787.327454 625.602356,783.496826 630.714355,779.204712 
M539.090332,790.549866 
	C540.571411,791.577515 542.052429,792.605164 543.731873,793.770386 
	C552.604248,786.321899 561.420715,778.920288 570.237244,771.518677 
	C570.091858,771.166260 569.946533,770.813904 569.801147,770.461487 
	C551.717651,771.066467 533.634094,771.671448 514.086121,772.325378 
	C523.021790,778.817627 530.769897,784.447021 539.090332,790.549866 
M739.912354,849.464844 
	C738.093994,851.002197 736.275635,852.539612 734.166504,854.322754 
	C743.621521,861.169556 752.404053,867.529358 760.802734,873.611206 
	C760.802734,859.917175 760.802734,846.608582 760.802734,832.057190 
	C753.191772,838.385559 746.818726,843.684631 739.912354,849.464844 
M430.327942,821.271118 
	C430.796082,820.621704 431.684052,819.962219 431.668640,819.324524 
	C431.472137,811.201660 431.159485,803.081421 430.847595,794.961548 
	C430.673889,790.439087 430.446655,785.918579 430.201721,780.466858 
	C421.018097,788.149048 412.713043,795.096191 404.136688,802.270325 
	C413.069550,808.788757 421.374573,814.849060 430.327942,821.271118 
M696.303833,790.792480 
	C696.207458,791.670471 695.714111,793.080811 696.072937,793.348328 
	C704.414673,799.567749 712.848694,805.663452 721.205383,811.738037 
	C721.205383,798.110291 721.205383,784.817444 721.205383,770.073853 
	C712.290344,777.484802 704.562439,783.908813 696.303833,790.792480 
M530.004761,849.527100 
	C525.241455,853.515747 520.478210,857.504395 515.374023,861.778503 
	C524.755005,868.587158 533.522217,874.950378 542.069885,881.154236 
	C542.069885,867.476624 542.069885,854.292908 542.069885,839.640320 
	C537.373169,843.474854 533.955444,846.265198 530.004761,849.527100 
M646.007629,774.134888 
	C637.842285,780.892883 629.676880,787.650818 621.022583,794.813416 
	C630.261047,801.515686 639.128357,807.948669 648.007874,814.390503 
	C648.007874,806.965027 648.166809,800.199463 647.962097,793.444946 
	C647.766785,787.001953 647.192505,780.570435 646.007629,774.134888 
M615.011169,845.624817 
	C615.011169,843.215942 615.011169,840.807068 615.011169,837.157959 
	C605.589478,845.016602 597.238403,851.982300 588.519409,859.254883 
	C597.778381,865.979309 606.578979,872.370850 615.012390,878.495728 
	C615.012390,867.739807 615.012390,857.152039 615.011169,845.624817 
M376.897186,860.422913 
	C374.523926,862.423401 372.150665,864.423889 369.355682,866.779907 
	C378.625885,873.511292 387.475159,879.937012 395.930176,886.076477 
	C395.930176,872.406555 395.930176,859.220642 395.930176,844.611755 
	C388.873840,850.461426 383.151825,855.204956 376.897186,860.422913 
M662.120056,856.556091 
	C670.853088,863.184021 679.586121,869.811890 688.130127,876.296326 
	C688.130127,862.437561 688.130127,849.268188 688.130127,834.614197 
	C678.732544,842.452393 670.623230,849.216064 662.120056,856.556091 
M449.290680,837.890137 
	C435.821014,838.338623 422.351349,838.787109 407.566071,839.279358 
	C415.250641,844.871521 421.792877,849.641235 428.344513,854.397888 
	C437.151886,860.792114 436.871674,860.406677 445.682098,853.857117 
	C451.698669,849.384460 451.954376,844.180603 449.290680,837.890137 
M357.542267,801.830505 
	C357.276611,795.852356 357.010925,789.874207 356.706940,783.033997 
	C347.567078,790.651672 339.255585,797.578979 330.608887,804.785706 
	C339.947632,811.563599 348.699219,817.915405 357.543579,824.334534 
	C357.543579,816.663879 357.543579,809.721191 357.542267,801.830505 
M426.891632,869.361450 
	C428.645691,867.860718 430.399750,866.359924 432.532501,864.535217 
	C423.395172,857.927673 414.613770,851.577576 406.109436,845.427795 
	C406.109436,859.005066 406.109436,872.190308 406.109436,886.692383 
	C413.664429,880.394592 420.005280,875.108948 426.891632,869.361450 
M550.290955,795.799866 
	C547.609741,797.721008 550.066345,798.460693 551.192688,799.295410 
	C556.674011,803.357239 562.212585,807.341858 567.733093,811.350769 
	C570.295837,813.211731 572.863647,815.065674 575.203064,816.759155 
	C575.203064,802.974121 575.203064,789.736572 575.203064,775.026855 
	C566.279114,782.463074 558.552612,788.901489 550.290955,795.799866 
M386.774963,796.767090 
	C380.571869,792.300171 374.368805,787.833252 368.369263,783.512878 
	C368.369263,797.179871 368.369263,810.223877 368.369263,824.669434 
	C377.898102,816.690674 386.191315,809.746521 394.702606,802.619751 
	C391.901001,800.532959 389.638336,798.847656 386.774963,796.767090 
M900.846436,875.515381 
	C900.846436,868.155762 900.846436,860.796143 900.846436,853.436523 
	C900.285583,853.359741 899.724792,853.282959 899.163940,853.206177 
	C890.789978,860.185547 882.415955,867.164917 873.777832,874.364380 
	C883.046509,881.083130 891.941895,887.531189 900.858887,893.994995 
	C900.858887,887.772705 900.858887,882.140503 900.846436,875.515381 
M860.054016,871.476074 
	C852.729431,866.177429 845.404846,860.878784 838.136963,855.621216 
	C838.136963,869.287537 838.136963,882.396179 838.136963,896.725403 
	C847.571228,888.827271 855.812683,881.927673 864.353699,874.777283 
	C862.898010,873.654236 861.761597,872.777649 860.054016,871.476074 
M719.569946,859.005920 
	C721.177551,857.595337 722.785156,856.184814 724.705688,854.499695 
	C715.654236,847.945251 706.894897,841.602417 698.414001,835.461121 
	C698.414001,849.003662 698.414001,862.153992 698.414001,876.645996 
	C706.096741,870.235657 712.554993,864.846985 719.569946,859.005920 
M625.118713,838.489441 
	C625.477234,851.598022 625.835754,864.706543 626.222534,878.847412 
	C635.425293,871.127686 643.614380,864.258301 652.261230,857.004944 
	C643.095703,850.464417 634.478394,844.315125 625.118713,838.489441 
M338.778503,851.703552 
	C336.999542,850.449280 335.220612,849.195068 332.513611,847.286560 
	C333.113953,861.509399 333.657013,874.374695 334.200073,887.239990 
	C334.719360,887.285339 335.238678,887.330688 335.757965,887.376038 
	C343.686615,880.722656 351.615234,874.069275 359.964142,867.063232 
	C352.733704,861.808777 346.057129,856.956848 338.778503,851.703552 
M658.119873,773.919312 
	C658.448364,787.058350 658.776855,800.197388 659.132996,814.440063 
	C668.388489,806.679199 676.674377,799.731384 685.207642,792.576172 
	C676.074524,786.041321 667.449707,779.870239 658.119873,773.919312 
M552.376892,855.363892 
	C552.682068,863.692200 552.987183,872.020447 553.324158,881.217468 
	C562.401062,873.616150 570.657043,866.702209 579.207520,859.541687 
	C570.094666,852.977783 561.327942,846.663208 552.189087,840.080566 
	C552.189087,845.449158 552.189087,849.931702 552.376892,855.363892 
M534.876282,794.561401 
	C527.439331,789.207764 520.002319,783.854126 512.914917,778.752075 
	C512.914917,792.274963 512.914917,805.268860 512.914917,819.557800 
	C522.418274,811.598938 530.658142,804.698242 539.041382,797.677429 
	C537.567932,796.564941 536.506958,795.763855 534.876282,794.561401 
M592.939331,781.575134 
	C590.343628,779.717346 587.747864,777.859497 585.411987,776.187683 
	C585.411987,789.678711 585.411987,802.694885 585.411987,817.155212 
	C594.881592,809.222961 603.076721,802.358337 611.686890,795.146057 
	C605.316223,790.535156 599.418884,786.266846 592.939331,781.575134 
M503.070831,809.348633 
	C502.732727,799.192383 502.394623,789.036072 502.026733,777.985657 
	C495.486328,783.431519 489.781342,788.174866 484.084930,792.928467 
	C482.032684,794.641174 480.621338,803.051575 482.614563,804.609924 
	C489.167877,809.733154 496.027771,814.464233 503.143463,819.616394 
	C503.143463,815.890137 503.143463,813.090393 503.070831,809.348633 
M260.136536,878.473877 
	C260.136536,882.409912 260.136536,886.346008 260.136536,891.165710 
	C261.740601,890.130981 262.426056,889.777588 263.008575,889.298950 
	C267.251404,885.812317 272.872437,883.058838 275.301147,878.579102 
	C277.639893,874.265259 278.979065,866.537292 276.637177,863.205383 
	C272.752930,857.679016 265.566956,854.473389 260.087555,850.518066 
	C260.087555,859.872803 260.087555,868.679260 260.136536,878.473877 
M307.594849,867.249329 
	C307.722778,869.236267 307.773590,871.232117 308.000732,873.207642 
	C308.218964,875.105591 307.943115,877.789978 309.059967,878.726074 
	C313.419098,882.379395 318.244507,885.476440 322.509583,888.505432 
	C322.509583,875.002075 322.509583,861.711792 322.509583,847.125671 
	C318.227539,850.644470 315.352661,853.377258 312.114044,855.573853 
	C308.129608,858.276367 306.163452,861.528198 307.594849,867.249329 
M353.337921,828.212341 
	C344.087006,821.574890 334.836121,814.937439 325.585205,808.299988 
	C325.147705,808.728516 324.710205,809.156982 324.272705,809.585449 
	C325.318298,817.532898 326.363892,825.480347 327.356232,833.023071 
	C337.732605,833.023071 347.719574,833.023071 357.706543,833.023071 
	C357.826477,832.602112 357.946411,832.181213 358.066345,831.760254 
	C356.682678,830.728760 355.299042,829.697205 353.337921,828.212341 
M298.476868,878.169922 
	C296.173889,876.539429 293.870941,874.908936 291.883087,873.501526 
	C279.055756,878.149475 282.548126,888.894653 281.817596,897.870972 
	C288.938049,897.870972 295.617889,897.870972 301.991364,897.870972 
	C301.991364,892.391785 302.210632,887.564819 301.857666,882.780151 
	C301.751831,881.346130 300.049133,880.029968 298.476868,878.169922 
M321.990967,792.562195 
	C322.360229,794.673706 322.376160,796.950806 323.254089,798.823914 
	C323.666870,799.704651 326.381836,800.609314 326.960663,800.143982 
	C335.649506,793.157471 344.155914,785.944031 352.757141,778.740540 
	C341.660645,778.740540 331.002808,778.740540 320.014252,778.740540 
	C320.745605,783.579834 321.358459,787.635132 321.990967,792.562195 
M492.386902,852.122864 
	C489.484894,850.125793 486.582886,848.128784 484.109131,846.426453 
	C484.109131,857.459045 484.109131,868.171204 484.109131,880.390442 
	C492.135681,873.675598 498.880615,868.032959 506.018799,862.061279 
	C501.244385,858.596436 497.094879,855.585083 492.386902,852.122864 
M311.978394,765.382141 
	C309.259674,745.285400 306.540924,725.188599 303.822205,705.091858 
	C303.230316,705.143066 302.638428,705.194275 302.046570,705.245483 
	C302.893463,728.075134 303.740356,750.904846 304.581604,773.582031 
	C307.631317,773.582031 310.201111,773.582031 313.039886,773.582031 
	C312.667206,770.848999 312.354584,768.556519 311.978394,765.382141 
M296.121918,716.274963 
	C296.121918,712.598267 296.121918,708.921631 296.121918,705.244934 
	C295.479065,705.242432 294.836212,705.239929 294.193390,705.237366 
	C292.691864,728.183289 291.190338,751.129150 289.661499,774.492249 
	C292.788513,774.320557 295.209137,774.187683 298.204651,774.023254 
	C297.515533,754.985901 296.831818,736.097534 296.121918,716.274963 
M440.572693,820.260681 
	C445.743469,819.198242 450.054596,814.562439 449.973083,809.973511 
	C449.884766,805.001648 449.087677,799.971741 449.611816,795.075500 
	C450.461975,787.134155 445.287445,784.247437 440.460754,781.500671 
	C440.460754,794.122559 440.460754,806.795166 440.572693,820.260681 
M295.403259,843.040955 
	C292.001434,843.217590 288.599579,843.394287 285.175476,843.572083 
	C284.761322,848.642944 284.282043,853.104919 284.102173,857.578918 
	C284.048889,858.903381 284.424896,860.814270 285.327881,861.491455 
	C287.313690,862.980774 290.727936,865.393250 291.840729,864.693970 
	C295.320587,862.507507 299.192596,859.538940 300.662476,855.951477 
	C302.161041,852.294006 300.993927,847.544312 300.993927,842.998901 
	C298.972839,842.998901 297.665131,842.998901 295.403259,843.040955 
M307.718201,834.427368 
	C312.119904,834.221741 316.521637,834.016052 321.295471,833.793030 
	C320.402832,827.345154 319.581207,821.410095 318.659637,814.753174 
	C315.564240,817.326233 313.256866,819.771301 310.482147,821.438660 
	C305.069916,824.690735 305.449036,829.219238 307.718201,834.427368 
M297.753113,786.880371 
	C297.924927,786.452942 298.096741,786.025574 298.268555,785.598145 
	C298.384979,786.064758 298.501404,786.531311 298.617828,786.997925 
	C297.155853,786.790283 295.693848,786.582703 294.840881,786.461548 
	C294.840881,799.433289 294.840881,812.581848 294.840881,826.095642 
	C299.112701,824.864807 300.300201,822.711121 300.040314,819.240906 
	C299.557678,812.796082 299.400146,806.327637 299.025635,799.873718 
	C298.789032,795.795349 298.404633,791.725525 297.753113,786.880371 
M482.626617,825.028564 
	C483.169312,826.080322 483.680695,828.026306 484.259460,828.046509 
	C490.540070,828.266235 496.831177,828.183838 503.119446,828.183838 
	C503.170868,827.674377 503.222290,827.164917 503.273712,826.655396 
	C496.415253,821.746948 489.556793,816.838440 481.954376,811.397522 
	C482.208740,816.483032 482.399506,820.296509 482.626617,825.028564 
M311.100098,813.657715 
	C320.867798,805.572632 319.381592,800.546631 304.875000,794.151489 
	C305.282013,801.874512 305.675385,809.339172 306.109833,817.583130 
	C308.008423,816.090271 309.266724,815.100891 311.100098,813.657715 
M287.880188,802.543213 
	C287.075226,814.934692 286.270233,827.326172 285.528992,838.736938 
	C286.691803,838.376892 288.367126,837.858154 289.320007,837.563110 
	C289.320007,824.526062 289.320007,811.621704 289.320007,798.717407 
	C288.900116,798.727112 288.480225,798.736877 288.060333,798.746643 
	C288.012573,799.734253 287.964813,800.721924 287.880188,802.543213 
M481.022400,782.210815 
	C481.141785,783.749329 481.261139,785.287903 481.442566,787.626221 
	C487.375732,782.647034 492.611938,778.252747 498.322754,773.460144 
	C492.116486,773.460144 486.756012,773.460144 481.015686,773.460144 
	C481.015686,776.390564 481.015686,778.848938 481.022400,782.210815 
M309.588684,779.137207 
	C308.008423,779.335144 306.428162,779.533081 304.953461,779.717834 
	C303.219788,788.751282 311.269440,789.454285 316.087433,794.609497 
	C315.343262,789.463806 314.613525,785.775696 314.336151,782.053955 
	C314.128967,779.273560 312.660950,778.863708 309.588684,779.137207 
M311.624634,887.679443 
	C310.590729,887.110840 309.556854,886.542297 307.900726,885.631531 
	C308.226624,890.220154 308.490204,893.931580 308.767517,897.836121 
	C313.972656,897.547913 318.619202,897.290588 324.411316,896.969849 
	C319.690765,893.522400 315.971802,890.806458 311.624634,887.679443 
M278.854492,846.460144 
	C278.042389,845.580872 277.270477,843.990112 276.411407,843.941589 
	C271.902161,843.686951 267.370850,843.822388 262.847198,843.822388 
	C262.777130,844.258789 262.707031,844.695190 262.636963,845.131653 
	C267.578827,848.688721 272.520691,852.245789 277.740417,856.002869 
	C278.163330,852.614136 278.491425,849.985168 278.854492,846.460144 
M275.846069,886.948486 
	C270.854401,890.629150 265.862762,894.309814 260.871094,897.990540 
	C261.091583,898.273376 261.312073,898.556274 261.532562,898.839172 
	C265.939606,898.839172 270.346649,898.839172 275.259857,898.839172 
	C275.510895,894.915771 275.742218,891.300232 275.846069,886.948486 
M451.026123,857.112183 
	C448.061432,859.372986 445.096741,861.633728 441.733948,864.198059 
	C445.295288,866.745056 448.282501,868.881409 451.715790,871.336853 
	C451.715790,866.266418 451.715790,861.896606 451.026123,857.112183 
M307.127869,851.338806 
	C310.894745,848.670776 314.661652,846.002686 318.428528,843.334656 
	C318.246887,842.970337 318.065247,842.606079 317.883606,842.241760 
	C314.352264,842.425598 310.820923,842.609436 306.998749,842.808411 
	C306.998749,845.619019 306.998749,848.096558 307.127869,851.338806 
M444.075378,829.896912 
	C445.563049,829.822144 447.249634,829.279663 448.482483,829.804016 
	C449.718628,830.329834 450.502014,831.919983 451.483826,833.043640 
	C450.972961,833.284851 450.462097,833.526062 449.951202,833.767273 
	C450.190887,829.878235 450.430542,825.989197 450.756226,820.704834 
	C447.005524,823.809387 444.382477,825.980591 441.759399,828.151794 
	C442.254547,828.732849 442.749725,829.313965 444.075378,829.896912 
M298.385712,871.133423 
	C299.427582,871.805420 300.469452,872.477478 302.021271,873.478394 
	C301.793549,870.390625 301.615173,867.972351 301.436829,865.554077 
	C300.203186,867.467468 294.416016,866.285400 298.385712,871.133423 
M616.755920,892.072083 
	C614.974548,892.072083 613.193176,892.072083 611.411804,892.072083 
	C611.431274,892.271973 611.450684,892.471863 611.470093,892.671753 
	C619.147156,892.671753 626.824219,892.671753 634.501221,892.671753 
	C634.499817,892.464661 634.498352,892.257507 634.496948,892.050415 
	C628.894226,892.050415 623.291504,892.050415 616.755920,892.072083 
M301.719147,903.803284 
	C302.187134,902.643311 302.655151,901.483337 303.123138,900.323303 
	C299.642670,905.768494 293.978180,901.379395 289.432678,903.948303 
	C293.721832,903.948303 297.309082,903.948303 301.719147,903.803284 
z"/>
<path fill="#B9525B" opacity="1.000000" stroke="none" 
	d="
M1920.500000,1081.000000 
	C1920.000000,1051.345947 1919.992676,1021.691772 1920.018311,992.037659 
	C1920.019775,990.226868 1920.283203,988.416382 1920.712402,986.302856 
	C1921.000000,1017.666687 1921.000000,1049.333374 1920.500000,1081.000000 
z"/>
<path fill="#E3E9F3" opacity="1.000000" stroke="none" 
	d="
M492.806580,767.535156 
	C488.702057,767.537476 485.074066,767.537476 480.896606,767.537476 
	C480.280457,750.449341 479.659698,733.232239 479.020050,715.491760 
	C514.790527,714.243652 550.168457,713.009277 586.098633,711.755676 
	C586.736938,729.299255 587.358093,746.371216 588.009277,764.270447 
	C556.271912,765.363525 524.777527,766.448242 492.806580,767.535156 
z"/>
<path fill="#E3E6F0" opacity="1.000000" stroke="none" 
	d="
M632.721558,880.764282 
	C640.894165,873.961853 648.791016,867.384827 657.026855,860.525452 
	C667.770325,868.307983 678.398621,876.007080 689.026917,883.706116 
	C688.906311,884.030396 688.785706,884.354675 688.665100,884.678955 
	C668.253052,885.378052 647.841064,886.077209 625.851257,886.830383 
	C628.719788,884.289673 630.582764,882.639587 632.721558,880.764282 
z"/>
<path fill="#E2E5EF" opacity="1.000000" stroke="none" 
	d="
M601.271667,811.292603 
	C606.397522,807.024475 611.257080,802.992065 616.510254,798.632935 
	C627.233887,806.384094 637.920105,814.108215 649.785645,822.684814 
	C627.834167,823.453430 607.335876,824.171143 586.837646,824.888916 
	C586.602905,824.586731 586.368164,824.284485 586.133423,823.982300 
	C591.090759,819.830994 596.048035,815.679626 601.271667,811.292603 
z"/>
<path fill="#E3E6F0" opacity="1.000000" stroke="none" 
	d="
M716.331848,820.511108 
	C697.377808,821.114441 678.860168,821.693237 660.342590,822.271973 
	C660.207031,821.895264 660.071411,821.518494 659.935852,821.141785 
	C669.811157,812.885376 679.686462,804.628967 689.914001,796.078064 
	C700.544067,803.759644 711.142700,811.418579 722.549988,819.661804 
	C720.064819,820.016296 718.416565,820.251465 716.331848,820.511108 
z"/>
<path fill="#E3E6F0" opacity="1.000000" stroke="none" 
	d="
M756.519531,877.496704 
	C758.375549,878.888367 759.951965,880.055359 762.739136,882.118652 
	C740.959595,882.874695 720.498230,883.584900 700.036865,884.295166 
	C699.826355,883.942932 699.615784,883.590759 699.405273,883.238525 
	C709.345154,874.934326 719.285034,866.630127 729.556946,858.048523 
	C738.488708,864.483276 747.364258,870.877625 756.519531,877.496704 
z"/>
<path fill="#E3E6F0" opacity="1.000000" stroke="none" 
	d="
M594.999023,887.917969 
	C581.129761,887.966003 567.755859,887.966003 554.116028,887.966003 
	C563.809570,879.853821 573.746704,871.537903 583.959290,862.991333 
	C594.697998,870.771118 605.340759,878.481384 615.983582,886.191650 
	C615.871887,886.751099 615.760193,887.310547 615.648499,887.869995 
	C608.930420,887.869995 602.212402,887.869995 594.999023,887.917969 
z"/>
<path fill="#E3E6F0" opacity="1.000000" stroke="none" 
	d="
M543.356995,801.598328 
	C554.437317,808.981628 565.222046,816.538330 576.006836,824.095093 
	C575.865112,824.480774 575.723389,824.866516 575.581665,825.252197 
	C555.172241,825.939575 534.762878,826.626953 514.353455,827.314392 
	C514.198242,826.921265 514.043030,826.528137 513.887817,826.135010 
	C523.612366,818.013916 533.336914,809.892822 543.356995,801.598328 
z"/>
<path fill="#E3E6F0" opacity="1.000000" stroke="none" 
	d="
M404.085083,831.047852 
	C392.330658,831.077576 381.062958,831.077576 369.550842,831.077576 
	C379.292877,822.942078 389.341187,814.550781 399.535583,806.037476 
	C410.311523,813.827454 420.908966,821.488403 432.827393,830.104309 
	C422.463196,830.439514 413.517487,830.728821 404.085083,831.047852 
z"/>
<path fill="#E3E6F0" opacity="1.000000" stroke="none" 
	d="
M396.042297,893.152649 
	C396.167755,893.851379 396.006531,894.737976 395.814819,894.744629 
	C375.975830,895.432617 356.134552,896.054321 335.135925,896.716492 
	C336.434631,894.927429 337.028290,893.664978 337.996796,892.845581 
	C345.979767,886.091370 354.113647,879.513184 362.013184,872.664124 
	C364.317749,870.666138 365.789490,871.127930 367.953064,872.733948 
	C377.146881,879.558838 386.467285,886.213135 396.042297,893.152649 
z"/>
<path fill="#E3E6F0" opacity="1.000000" stroke="none" 
	d="
M885.973755,902.852051 
	C870.193054,902.853027 854.906982,902.853027 839.634644,902.853027 
	C849.054749,894.984192 859.091553,886.600159 869.248230,878.116028 
	C880.003418,885.899597 890.470398,893.474731 902.277710,902.019775 
	C896.041504,902.347717 891.254944,902.599426 885.973755,902.852051 
z"/>
<path fill="#E3E6F0" opacity="1.000000" stroke="none" 
	d="
M489.311584,883.419312 
	C496.592590,877.362610 503.599792,871.549194 510.855286,865.529724 
	C521.659180,873.368530 532.275452,881.071228 544.105225,889.654358 
	C523.502380,890.332764 504.529388,890.957458 485.675049,891.578308 
	C483.533325,887.220520 486.761444,885.661926 489.311584,883.419312 
z"/>
<path fill="#E3E6F0" opacity="1.000000" stroke="none" 
	d="
M418.091492,884.115112 
	C424.621490,878.671265 430.877472,873.451599 437.340393,868.059265 
	C441.782928,871.257690 446.217651,874.169312 450.273254,877.537354 
	C451.531372,878.582275 452.125061,880.814148 452.379791,882.594604 
	C452.824554,885.703308 452.770813,888.883423 452.959198,892.708191 
	C437.674591,893.240662 422.646881,893.764160 407.619171,894.287659 
	C407.432404,893.962280 407.245636,893.636841 407.058838,893.311462 
	C410.645050,890.320740 414.231262,887.330017 418.091492,884.115112 
z"/>
<path fill="#E2E4EE" opacity="1.000000" stroke="none" 
	d="
M527.838623,843.817871 
	C521.976013,848.729919 516.378967,853.406311 510.563690,858.265076 
	C501.255920,851.502869 492.076202,844.833679 482.896484,838.164551 
	C482.989258,837.678040 483.082062,837.191528 483.174866,836.705017 
	C501.151123,836.079773 519.127441,835.454468 538.551880,834.778809 
	C534.321960,838.343018 531.213074,840.962585 527.838623,843.817871 
z"/>
<path fill="#E2E4EE" opacity="1.000000" stroke="none" 
	d="
M383.817810,840.020508 
	C386.546692,839.998596 388.807526,839.998596 392.298859,839.998596 
	C382.531891,848.191040 373.683167,855.613281 364.556213,863.268860 
	C355.110352,856.410461 345.752533,849.616028 336.394714,842.821594 
	C336.437012,842.464539 336.479309,842.107422 336.521606,841.750366 
	C352.131012,841.181091 367.740417,840.611755 383.817810,840.020508 
z"/>
<path fill="#E2E4EE" opacity="1.000000" stroke="none" 
	d="
M400.411316,797.841309 
	C399.472809,798.022400 398.683533,798.231873 398.261230,797.929199 
	C389.099365,791.364014 379.978424,784.741699 369.682739,777.285400 
	C389.361328,776.607056 407.651428,775.976624 427.270782,775.300293 
	C417.855988,783.222168 409.293732,790.426636 400.411316,797.841309 
z"/>
<path fill="#E2E5EF" opacity="1.000000" stroke="none" 
	d="
M662.480286,848.480957 
	C660.552124,850.093811 658.893494,851.471924 656.768799,853.237244 
	C647.377136,846.422546 637.935852,839.571838 627.189758,831.774353 
	C646.847717,831.088928 664.992310,830.456238 684.799316,829.765564 
	C676.716675,836.539978 669.733215,842.393127 662.480286,848.480957 
z"/>
<path fill="#E2E5EF" opacity="1.000000" stroke="none" 
	d="
M843.618408,852.405151 
	C842.435669,851.484192 841.529846,850.784973 839.662964,849.343994 
	C858.973816,848.699402 877.204834,848.090942 896.967773,847.431274 
	C887.347656,855.517883 878.939819,862.694580 870.331604,869.622192 
	C869.613831,870.199829 867.264893,869.496277 866.148376,868.712219 
	C858.658875,863.452759 851.297974,858.010193 843.618408,852.405151 
z"/>
<path fill="#E3E7F1" opacity="1.000000" stroke="none" 
	d="
M563.165161,840.813232 
	C560.387390,838.773621 557.896912,836.945068 554.255859,834.271667 
	C573.894836,833.597717 592.110413,832.972656 611.713562,832.299927 
	C601.796631,840.615173 592.857117,848.110840 583.741272,855.754395 
	C576.827942,850.735168 570.140259,845.879700 563.165161,840.813232 
z"/>
<path fill="#E2E5EF" opacity="1.000000" stroke="none" 
	d="
M741.593750,840.583740 
	C738.508667,843.153564 735.506653,845.303589 732.930176,847.879333 
	C730.493408,850.315491 728.675964,850.551941 725.792603,848.330566 
	C717.650818,842.057983 709.230957,836.146362 699.818848,829.289795 
	C719.372131,828.617126 737.649963,827.988281 757.237000,827.314453 
	C751.557495,832.129883 746.710083,836.239868 741.593750,840.583740 
z"/>
<path fill="#E2E5EF" opacity="1.000000" stroke="none" 
	d="
M684.815308,785.297058 
	C676.783691,779.442017 669.046326,773.812012 660.138428,767.330383 
	C679.713257,766.666443 697.833618,766.051819 715.953979,765.437195 
	C716.151428,765.734131 716.348877,766.031067 716.546326,766.328003 
	C707.658875,773.789429 698.771423,781.250793 689.805176,788.778259 
	C688.068237,787.573792 686.588867,786.547974 684.815308,785.297058 
z"/>
<path fill="#E3E7F1" opacity="1.000000" stroke="none" 
	d="
M630.444092,779.435486 
	C625.602356,783.496826 621.030823,787.327454 616.243286,791.339050 
	C606.731506,784.428284 597.394104,777.644165 588.056702,770.860046 
	C588.132141,770.516479 588.207642,770.172913 588.283081,769.829346 
	C606.483765,769.186768 624.684448,768.544128 644.259277,767.853088 
	C639.012573,772.250183 634.863464,775.727417 630.444092,779.435486 
z"/>
<path fill="#E3E7F1" opacity="1.000000" stroke="none" 
	d="
M538.804199,790.313171 
	C530.769897,784.447021 523.021790,778.817627 514.086121,772.325378 
	C533.634094,771.671448 551.717651,771.066467 569.801147,770.461487 
	C569.946533,770.813904 570.091858,771.166260 570.237244,771.518677 
	C561.420715,778.920288 552.604248,786.321899 543.731873,793.770386 
	C542.052429,792.605164 540.571411,791.577515 538.804199,790.313171 
z"/>
<path fill="#E2E4EE" opacity="1.000000" stroke="none" 
	d="
M740.178955,849.224243 
	C746.818726,843.684631 753.191772,838.385559 760.802734,832.057190 
	C760.802734,846.608582 760.802734,859.917175 760.802734,873.611206 
	C752.404053,867.529358 743.621521,861.169556 734.166504,854.322754 
	C736.275635,852.539612 738.093994,851.002197 740.178955,849.224243 
z"/>
<path fill="#E2E5EF" opacity="1.000000" stroke="none" 
	d="
M430.003784,821.090210 
	C421.374573,814.849060 413.069550,808.788757 404.136688,802.270325 
	C412.713043,795.096191 421.018097,788.149048 430.201721,780.466858 
	C430.446655,785.918579 430.673889,790.439087 430.847595,794.961548 
	C431.159485,803.081421 431.472137,811.201660 431.668640,819.324524 
	C431.684052,819.962219 430.796082,820.621704 430.003784,821.090210 
z"/>
<path fill="#E2E5EF" opacity="1.000000" stroke="none" 
	d="
M696.569214,790.562683 
	C704.562439,783.908813 712.290344,777.484802 721.205383,770.073853 
	C721.205383,784.817444 721.205383,798.110291 721.205383,811.738037 
	C712.848694,805.663452 704.414673,799.567749 696.072937,793.348328 
	C695.714111,793.080811 696.207458,791.670471 696.569214,790.562683 
z"/>
<path fill="#E2E5EF" opacity="1.000000" stroke="none" 
	d="
M530.271240,849.291321 
	C533.955444,846.265198 537.373169,843.474854 542.069885,839.640320 
	C542.069885,854.292908 542.069885,867.476624 542.069885,881.154236 
	C533.522217,874.950378 524.755005,868.587158 515.374023,861.778503 
	C520.478210,857.504395 525.241455,853.515747 530.271240,849.291321 
z"/>
<path fill="#E3E6F0" opacity="1.000000" stroke="none" 
	d="
M646.396240,774.134399 
	C647.192505,780.570435 647.766785,787.001953 647.962097,793.444946 
	C648.166809,800.199463 648.007874,806.965027 648.007874,814.390503 
	C639.128357,807.948669 630.261047,801.515686 621.022583,794.813416 
	C629.676880,787.650818 637.842285,780.892883 646.396240,774.134399 
z"/>
<path fill="#E2E5EF" opacity="1.000000" stroke="none" 
	d="
M615.011780,846.094482 
	C615.012390,857.152039 615.012390,867.739807 615.012390,878.495728 
	C606.578979,872.370850 597.778381,865.979309 588.519409,859.254883 
	C597.238403,851.982300 605.589478,845.016602 615.011169,837.157959 
	C615.011169,840.807068 615.011169,843.215942 615.011780,846.094482 
z"/>
<path fill="#E2E5EF" opacity="1.000000" stroke="none" 
	d="
M377.163513,860.185730 
	C383.151825,855.204956 388.873840,850.461426 395.930176,844.611755 
	C395.930176,859.220642 395.930176,872.406555 395.930176,886.076477 
	C387.475159,879.937012 378.625885,873.511292 369.355682,866.779907 
	C372.150665,864.423889 374.523926,862.423401 377.163513,860.185730 
z"/>
<path fill="#E3E6F0" opacity="1.000000" stroke="none" 
	d="
M662.316956,856.267944 
	C670.623230,849.216064 678.732544,842.452393 688.130127,834.614197 
	C688.130127,849.268188 688.130127,862.437561 688.130127,876.296326 
	C679.586121,869.811890 670.853088,863.184021 662.316956,856.267944 
z"/>
<path fill="#E3E7F1" opacity="1.000000" stroke="none" 
	d="
M449.770020,837.925598 
	C451.954376,844.180603 451.698669,849.384460 445.682098,853.857117 
	C436.871674,860.406677 437.151886,860.792114 428.344513,854.397888 
	C421.792877,849.641235 415.250641,844.871521 407.566071,839.279358 
	C422.351349,838.787109 435.821014,838.338623 449.770020,837.925598 
z"/>
<path fill="#E3E6F0" opacity="1.000000" stroke="none" 
	d="
M357.542908,802.304443 
	C357.543579,809.721191 357.543579,816.663879 357.543579,824.334534 
	C348.699219,817.915405 339.947632,811.563599 330.608887,804.785706 
	C339.255585,797.578979 347.567078,790.651672 356.706940,783.033997 
	C357.010925,789.874207 357.276611,795.852356 357.542908,802.304443 
z"/>
<path fill="#E2E4EE" opacity="1.000000" stroke="none" 
	d="
M426.618866,869.592346 
	C420.005280,875.108948 413.664429,880.394592 406.109436,886.692383 
	C406.109436,872.190308 406.109436,859.005066 406.109436,845.427795 
	C414.613770,851.577576 423.395172,857.927673 432.532501,864.535217 
	C430.399750,866.359924 428.645691,867.860718 426.618866,869.592346 
z"/>
<path fill="#E3E7F1" opacity="1.000000" stroke="none" 
	d="
M550.558533,795.569824 
	C558.552612,788.901489 566.279114,782.463074 575.203064,775.026855 
	C575.203064,789.736572 575.203064,802.974121 575.203064,816.759155 
	C572.863647,815.065674 570.295837,813.211731 567.733093,811.350769 
	C562.212585,807.341858 556.674011,803.357239 551.192688,799.295410 
	C550.066345,798.460693 547.609741,797.721008 550.558533,795.569824 
z"/>
<path fill="#E2E5EF" opacity="1.000000" stroke="none" 
	d="
M387.075317,796.964722 
	C389.638336,798.847656 391.901001,800.532959 394.702606,802.619751 
	C386.191315,809.746521 377.898102,816.690674 368.369263,824.669434 
	C368.369263,810.223877 368.369263,797.179871 368.369263,783.512878 
	C374.368805,787.833252 380.571869,792.300171 387.075317,796.964722 
z"/>
<path fill="#E3E7F1" opacity="1.000000" stroke="none" 
	d="
M900.852661,876.011841 
	C900.858887,882.140503 900.858887,887.772705 900.858887,893.994995 
	C891.941895,887.531189 883.046509,881.083130 873.777832,874.364380 
	C882.415955,867.164917 890.789978,860.185547 899.163940,853.206177 
	C899.724792,853.282959 900.285583,853.359741 900.846436,853.436523 
	C900.846436,860.796143 900.846436,868.155762 900.852661,876.011841 
z"/>
<path fill="#E2E4EE" opacity="1.000000" stroke="none" 
	d="
M860.339600,871.688538 
	C861.761597,872.777649 862.898010,873.654236 864.353699,874.777283 
	C855.812683,881.927673 847.571228,888.827271 838.136963,896.725403 
	C838.136963,882.396179 838.136963,869.287537 838.136963,855.621216 
	C845.404846,860.878784 852.729431,866.177429 860.339600,871.688538 
z"/>
<path fill="#E2E5EF" opacity="1.000000" stroke="none" 
	d="
M719.291626,859.232178 
	C712.554993,864.846985 706.096741,870.235657 698.414001,876.645996 
	C698.414001,862.153992 698.414001,849.003662 698.414001,835.461121 
	C706.894897,841.602417 715.654236,847.945251 724.705688,854.499695 
	C722.785156,856.184814 721.177551,857.595337 719.291626,859.232178 
z"/>
<path fill="#E2E5EF" opacity="1.000000" stroke="none" 
	d="
M625.489868,838.327637 
	C634.478394,844.315125 643.095703,850.464417 652.261230,857.004944 
	C643.614380,864.258301 635.425293,871.127686 626.222534,878.847412 
	C625.835754,864.706543 625.477234,851.598022 625.489868,838.327637 
z"/>
<path fill="#E2E5EF" opacity="1.000000" stroke="none" 
	d="
M339.079529,851.904175 
	C346.057129,856.956848 352.733704,861.808777 359.964142,867.063232 
	C351.615234,874.069275 343.686615,880.722656 335.757965,887.376038 
	C335.238678,887.330688 334.719360,887.285339 334.200073,887.239990 
	C333.657013,874.374695 333.113953,861.509399 332.513611,847.286560 
	C335.220612,849.195068 336.999542,850.449280 339.079529,851.904175 
z"/>
<path fill="#E2E5EF" opacity="1.000000" stroke="none" 
	d="
M658.472412,773.809204 
	C667.449707,779.870239 676.074524,786.041321 685.207642,792.576172 
	C676.674377,799.731384 668.388489,806.679199 659.132996,814.440063 
	C658.776855,800.197388 658.448364,787.058350 658.472412,773.809204 
z"/>
<path fill="#E3E7F1" opacity="1.000000" stroke="none" 
	d="
M552.282959,854.889038 
	C552.189087,849.931702 552.189087,845.449158 552.189087,840.080566 
	C561.327942,846.663208 570.094666,852.977783 579.207520,859.541687 
	C570.657043,866.702209 562.401062,873.616150 553.324158,881.217468 
	C552.987183,872.020447 552.682068,863.692200 552.282959,854.889038 
z"/>
<path fill="#E2E5EF" opacity="1.000000" stroke="none" 
	d="
M535.161133,794.762085 
	C536.506958,795.763855 537.567932,796.564941 539.041382,797.677429 
	C530.658142,804.698242 522.418274,811.598938 512.914917,819.557800 
	C512.914917,805.268860 512.914917,792.274963 512.914917,778.752075 
	C520.002319,783.854126 527.439331,789.207764 535.161133,794.762085 
z"/>
<path fill="#E3E7F1" opacity="1.000000" stroke="none" 
	d="
M593.230469,781.786865 
	C599.418884,786.266846 605.316223,790.535156 611.686890,795.146057 
	C603.076721,802.358337 594.881592,809.222961 585.411987,817.155212 
	C585.411987,802.694885 585.411987,789.678711 585.411987,776.187683 
	C587.747864,777.859497 590.343628,779.717346 593.230469,781.786865 
z"/>
<path fill="#E3E6F0" opacity="1.000000" stroke="none" 
	d="
M503.107147,809.819641 
	C503.143463,813.090393 503.143463,815.890137 503.143463,819.616394 
	C496.027771,814.464233 489.167877,809.733154 482.614563,804.609924 
	C480.621338,803.051575 482.032684,794.641174 484.084930,792.928467 
	C489.781342,788.174866 495.486328,783.431519 502.026733,777.985657 
	C502.394623,789.036072 502.732727,799.192383 503.107147,809.819641 
z"/>
<path fill="#E2E4EE" opacity="1.000000" stroke="none" 
	d="
M260.112061,877.979797 
	C260.087555,868.679260 260.087555,859.872803 260.087555,850.518066 
	C265.566956,854.473389 272.752930,857.679016 276.637177,863.205383 
	C278.979065,866.537292 277.639893,874.265259 275.301147,878.579102 
	C272.872437,883.058838 267.251404,885.812317 263.008575,889.298950 
	C262.426056,889.777588 261.740601,890.130981 260.136536,891.165710 
	C260.136536,886.346008 260.136536,882.409912 260.112061,877.979797 
z"/>
<path fill="#E2E5EF" opacity="1.000000" stroke="none" 
	d="
M307.573608,866.803284 
	C306.163452,861.528198 308.129608,858.276367 312.114044,855.573853 
	C315.352661,853.377258 318.227539,850.644470 322.509583,847.125671 
	C322.509583,861.711792 322.509583,875.002075 322.509583,888.505432 
	C318.244507,885.476440 313.419098,882.379395 309.059967,878.726074 
	C307.943115,877.789978 308.218964,875.105591 308.000732,873.207642 
	C307.773590,871.232117 307.722778,869.236267 307.573608,866.803284 
z"/>
<path fill="#E2E4EE" opacity="1.000000" stroke="none" 
	d="
M353.626648,828.439026 
	C355.299042,829.697205 356.682678,830.728760 358.066345,831.760254 
	C357.946411,832.181213 357.826477,832.602112 357.706543,833.023071 
	C347.719574,833.023071 337.732605,833.023071 327.356232,833.023071 
	C326.363892,825.480347 325.318298,817.532898 324.272705,809.585449 
	C324.710205,809.156982 325.147705,808.728516 325.585205,808.299988 
	C334.836121,814.937439 344.087006,821.574890 353.626648,828.439026 
z"/>
<path fill="#E3E7F1" opacity="1.000000" stroke="none" 
	d="
M298.777466,878.414856 
	C300.049133,880.029968 301.751831,881.346130 301.857666,882.780151 
	C302.210632,887.564819 301.991364,892.391785 301.991364,897.870972 
	C295.617889,897.870972 288.938049,897.870972 281.817596,897.870972 
	C282.548126,888.894653 279.055756,878.149475 291.883087,873.501526 
	C293.870941,874.908936 296.173889,876.539429 298.777466,878.414856 
z"/>
<path fill="#E2E4EE" opacity="1.000000" stroke="none" 
	d="
M321.981140,792.126343 
	C321.358459,787.635132 320.745605,783.579834 320.014252,778.740540 
	C331.002808,778.740540 341.660645,778.740540 352.757141,778.740540 
	C344.155914,785.944031 335.649506,793.157471 326.960663,800.143982 
	C326.381836,800.609314 323.666870,799.704651 323.254089,798.823914 
	C322.376160,796.950806 322.360229,794.673706 321.981140,792.126343 
z"/>
<path fill="#E2E5EF" opacity="1.000000" stroke="none" 
	d="
M492.666138,852.348328 
	C497.094879,855.585083 501.244385,858.596436 506.018799,862.061279 
	C498.880615,868.032959 492.135681,873.675598 484.109131,880.390442 
	C484.109131,868.171204 484.109131,857.459045 484.109131,846.426453 
	C486.582886,848.128784 489.484894,850.125793 492.666138,852.348328 
z"/>
<path fill="#E1E0EA" opacity="1.000000" stroke="none" 
	d="
M312.010193,765.823120 
	C312.354584,768.556519 312.667206,770.848999 313.039886,773.582031 
	C310.201111,773.582031 307.631317,773.582031 304.581604,773.582031 
	C303.740356,750.904846 302.893463,728.075134 302.046570,705.245483 
	C302.638428,705.194275 303.230316,705.143066 303.822205,705.091858 
	C306.540924,725.188599 309.259674,745.285400 312.010193,765.823120 
z"/>
<path fill="#E1E0EA" opacity="1.000000" stroke="none" 
	d="
M296.135010,716.742065 
	C296.831818,736.097534 297.515533,754.985901 298.204651,774.023254 
	C295.209137,774.187683 292.788513,774.320557 289.661499,774.492249 
	C291.190338,751.129150 292.691864,728.183289 294.193390,705.237366 
	C294.836212,705.239929 295.479065,705.242432 296.121918,705.244934 
	C296.121918,708.921631 296.121918,712.598267 296.135010,716.742065 
z"/>
<path fill="#E2E2EC" opacity="1.000000" stroke="none" 
	d="
M440.516724,819.864258 
	C440.460754,806.795166 440.460754,794.122559 440.460754,781.500671 
	C445.287445,784.247437 450.461975,787.134155 449.611816,795.075500 
	C449.087677,799.971741 449.884766,805.001648 449.973083,809.973511 
	C450.054596,814.562439 445.743469,819.198242 440.516724,819.864258 
z"/>
<path fill="#E2E5EF" opacity="1.000000" stroke="none" 
	d="
M295.880341,843.019897 
	C297.665131,842.998901 298.972839,842.998901 300.993927,842.998901 
	C300.993927,847.544312 302.161041,852.294006 300.662476,855.951477 
	C299.192596,859.538940 295.320587,862.507507 291.840729,864.693970 
	C290.727936,865.393250 287.313690,862.980774 285.327881,861.491455 
	C284.424896,860.814270 284.048889,858.903381 284.102173,857.578918 
	C284.282043,853.104919 284.761322,848.642944 285.175476,843.572083 
	C288.599579,843.394287 292.001434,843.217590 295.880341,843.019897 
z"/>
<path fill="#E2E5EF" opacity="1.000000" stroke="none" 
	d="
M307.327271,834.319092 
	C305.449036,829.219238 305.069916,824.690735 310.482147,821.438660 
	C313.256866,819.771301 315.564240,817.326233 318.659637,814.753174 
	C319.581207,821.410095 320.402832,827.345154 321.295471,833.793030 
	C316.521637,834.016052 312.119904,834.221741 307.327271,834.319092 
z"/>
<path fill="#E0DDE6" opacity="1.000000" stroke="none" 
	d="
M297.919800,787.266113 
	C298.404633,791.725525 298.789032,795.795349 299.025635,799.873718 
	C299.400146,806.327637 299.557678,812.796082 300.040314,819.240906 
	C300.300201,822.711121 299.112701,824.864807 294.840881,826.095642 
	C294.840881,812.581848 294.840881,799.433289 294.840881,786.461548 
	C295.693848,786.582703 297.155853,786.790283 298.617828,786.997925 
	C298.501404,786.531311 298.384979,786.064758 298.268555,785.598145 
	C298.096741,786.025574 297.924927,786.452942 297.919800,787.266113 
z"/>
<path fill="#E2E2EC" opacity="1.000000" stroke="none" 
	d="
M482.608429,824.569336 
	C482.399506,820.296509 482.208740,816.483032 481.954376,811.397522 
	C489.556793,816.838440 496.415253,821.746948 503.273712,826.655396 
	C503.222290,827.164917 503.170868,827.674377 503.119446,828.183838 
	C496.831177,828.183838 490.540070,828.266235 484.259460,828.046509 
	C483.680695,828.026306 483.169312,826.080322 482.608429,824.569336 
z"/>
<path fill="#E2E2EC" opacity="1.000000" stroke="none" 
	d="
M310.812561,813.884583 
	C309.266724,815.100891 308.008423,816.090271 306.109833,817.583130 
	C305.675385,809.339172 305.282013,801.874512 304.875000,794.151489 
	C319.381592,800.546631 320.867798,805.572632 310.812561,813.884583 
z"/>
<path fill="#DED7E1" opacity="1.000000" stroke="none" 
	d="
M287.898621,802.126343 
	C287.964813,800.721924 288.012573,799.734253 288.060333,798.746643 
	C288.480225,798.736877 288.900116,798.727112 289.320007,798.717407 
	C289.320007,811.621704 289.320007,824.526062 289.320007,837.563110 
	C288.367126,837.858154 286.691803,838.376892 285.528992,838.736938 
	C286.270233,827.326172 287.075226,814.934692 287.898621,802.126343 
z"/>
<path fill="#E1E0EA" opacity="1.000000" stroke="none" 
	d="
M481.019043,781.759033 
	C481.015686,778.848938 481.015686,776.390564 481.015686,773.460144 
	C486.756012,773.460144 492.116486,773.460144 498.322754,773.460144 
	C492.611938,778.252747 487.375732,782.647034 481.442566,787.626221 
	C481.261139,785.287903 481.141785,783.749329 481.019043,781.759033 
z"/>
<path fill="#E0DDE6" opacity="1.000000" stroke="none" 
	d="
M310.011475,779.131470 
	C312.660950,778.863708 314.128967,779.273560 314.336151,782.053955 
	C314.613525,785.775696 315.343262,789.463806 316.087433,794.609497 
	C311.269440,789.454285 303.219788,788.751282 304.953461,779.717834 
	C306.428162,779.533081 308.008423,779.335144 310.011475,779.131470 
z"/>
<path fill="#DED7E1" opacity="1.000000" stroke="none" 
	d="
M311.938751,887.885010 
	C315.971802,890.806458 319.690765,893.522400 324.411316,896.969849 
	C318.619202,897.290588 313.972656,897.547913 308.767517,897.836121 
	C308.490204,893.931580 308.226624,890.220154 307.900726,885.631531 
	C309.556854,886.542297 310.590729,887.110840 311.938751,887.885010 
z"/>
<path fill="#E2E2EC" opacity="1.000000" stroke="none" 
	d="
M278.837006,846.908203 
	C278.491425,849.985168 278.163330,852.614136 277.740417,856.002869 
	C272.520691,852.245789 267.578827,848.688721 262.636963,845.131653 
	C262.707031,844.695190 262.777130,844.258789 262.847198,843.822388 
	C267.370850,843.822388 271.902161,843.686951 276.411407,843.941589 
	C277.270477,843.990112 278.042389,845.580872 278.837006,846.908203 
z"/>
<path fill="#E2E2EC" opacity="1.000000" stroke="none" 
	d="
M275.909790,887.316589 
	C275.742218,891.300232 275.510895,894.915771 275.259857,898.839172 
	C270.346649,898.839172 265.939606,898.839172 261.532562,898.839172 
	C261.312073,898.556274 261.091583,898.273376 260.871094,897.990540 
	C265.862762,894.309814 270.854401,890.629150 275.909790,887.316589 
z"/>
<path fill="#E0DDE6" opacity="1.000000" stroke="none" 
	d="
M451.370972,857.319519 
	C451.715790,861.896606 451.715790,866.266418 451.715790,871.336853 
	C448.282501,868.881409 445.295288,866.745056 441.733948,864.198059 
	C445.096741,861.633728 448.061432,859.372986 451.370972,857.319519 
z"/>
<path fill="#DED7E1" opacity="1.000000" stroke="none" 
	d="
M307.063293,850.956421 
	C306.998749,848.096558 306.998749,845.619019 306.998749,842.808411 
	C310.820923,842.609436 314.352264,842.425598 317.883606,842.241760 
	C318.065247,842.606079 318.246887,842.970337 318.428528,843.334656 
	C314.661652,846.002686 310.894745,848.670776 307.063293,850.956421 
z"/>
<path fill="#DED7E1" opacity="1.000000" stroke="none" 
	d="
M443.660126,829.895996 
	C442.749725,829.313965 442.254547,828.732849 441.759399,828.151855 
	C444.382477,825.980591 447.005524,823.809387 450.756226,820.704834 
	C450.430542,825.989197 450.190887,829.878235 449.951202,833.767273 
	C450.462097,833.526062 450.972961,833.284851 451.483826,833.043640 
	C450.502014,831.919983 449.718628,830.329834 448.482483,829.804016 
	C447.249634,829.279663 445.563049,829.822144 443.660126,829.895996 
z"/>
<path fill="#DED7E1" opacity="1.000000" stroke="none" 
	d="
M298.107025,870.955322 
	C294.416016,866.285400 300.203186,867.467468 301.436829,865.554077 
	C301.615173,867.972351 301.793549,870.390625 302.021271,873.478394 
	C300.469452,872.477478 299.427582,871.805420 298.107025,870.955322 
z"/>
<path fill="#B9525B" opacity="1.000000" stroke="none" 
	d="
M617.222351,892.061279 
	C623.291504,892.050415 628.894226,892.050415 634.496948,892.050415 
	C634.498352,892.257507 634.499817,892.464661 634.501221,892.671753 
	C626.824219,892.671753 619.147156,892.671753 611.470093,892.671753 
	C611.450684,892.471863 611.431274,892.271973 611.411804,892.072083 
	C613.193176,892.072083 614.974548,892.072083 617.222351,892.061279 
z"/>
<path fill="#B9525B" opacity="1.000000" stroke="none" 
	d="
M301.307739,903.875793 
	C297.309082,903.948303 293.721832,903.948303 289.432678,903.948303 
	C293.978180,901.379395 299.642670,905.768494 303.123138,900.323303 
	C302.655151,901.483337 302.187134,902.643311 301.307739,903.875793 
z"/>
</svg>